<svg width="500" height="500" viewBox="0 0 500 500" fill="none" xmlns="http://www.w3.org/2000/svg">
<path d="M250 121C209.751 121 177 153.864 177 194.5C177 235.025 209.64 268 250 268C290.249 268 323 235.136 323 194.5C323 153.864 290.249 121 250 121ZM299.292 207.379C299.292 211.82 296.755 215.706 291.793 216.594C283.192 218.148 265.107 219.037 250 219.037C234.893 219.037 216.808 218.148 208.207 216.594C203.245 215.706 200.708 211.82 200.708 207.379V178.734C200.708 174.293 204.127 170.185 208.207 169.519C210.743 169.075 216.698 168.631 221.329 168.631C223.094 168.631 224.527 169.963 224.527 172.073V192.168L250.11 191.613L275.693 192.168V172.073C275.693 169.963 277.127 168.631 278.891 168.631C283.523 168.631 289.477 169.075 292.014 169.519C296.204 170.185 299.512 174.293 299.512 178.734C299.292 188.171 299.292 197.831 299.292 207.379Z" fill="#ED2226"/>
<path d="M58.6967 379.891C36.2691 379.891 25 363.767 25 345.878C25 328.098 36.711 312.086 58.9176 312.086C67.4247 312.086 73.5011 313.963 78.6937 317.276L72.2858 327.767C68.64 325.448 64.6627 324.013 58.6967 324.013C46.6543 324.013 40.2464 333.62 40.2464 345.547C40.2464 357.806 46.4333 367.964 58.9176 367.964C65.9884 367.964 70.1867 365.536 73.6116 362.995L79.4671 373.045C76.1527 376.026 68.3085 379.891 58.6967 379.891ZM106.314 339.694C99.1327 339.694 96.8126 345.767 96.8126 354.602C96.8126 363.436 99.6851 369.731 106.866 369.731C114.158 369.731 116.589 363.768 116.589 354.933C116.478 346.099 113.606 339.694 106.314 339.694ZM106.535 379.891C89.7418 379.891 82.4501 367.302 82.4501 354.932C82.4501 342.564 89.7418 329.643 106.535 329.643C123.328 329.643 130.951 342.122 130.951 354.49C130.841 366.749 123.439 379.891 106.535 379.891ZM152.053 330.859V361.559C152.053 366.308 153.71 368.627 158.241 368.627C163.101 368.627 166.747 363.989 167.742 362.884V330.859H181.221V364.651C181.221 370.946 181.884 375.806 182.547 378.676H169.178C168.737 377.351 168.294 374.259 168.184 372.271C165.642 375.584 160.671 379.78 152.717 379.78C142.111 379.78 138.355 373.044 138.355 364.209V330.749H152.054V330.859H152.053ZM214.475 379.891C199.007 379.891 189.506 369.84 189.506 354.823C189.506 338.7 200.223 329.645 214.917 329.645C222.65 329.645 227.291 331.964 229.611 333.399L225.302 342.675C223.204 341.35 220.11 339.915 215.359 339.915C207.846 339.915 203.87 345.767 203.87 354.492C203.87 363.214 207.625 369.51 215.691 369.51C221.215 369.51 224.418 367.522 225.854 366.639L229.942 375.693C227.732 377.13 223.313 379.891 214.475 379.891ZM266.18 378.786V347.976C266.18 343.228 264.523 340.908 259.993 340.908C255.132 340.908 251.375 345.436 250.381 346.651V378.676H236.902V308H250.381V336.491C252.812 333.841 257.452 329.645 265.296 329.645C275.903 329.645 279.659 336.381 279.659 345.215V378.676H266.18V378.786ZM304.185 368.295C305.069 368.627 307.058 369.288 310.593 369.288C317.553 369.288 321.862 364.208 321.862 354.38C321.862 345.545 318.879 340.245 312.029 340.245C308.052 340.245 304.96 342.785 304.185 343.779V368.295ZM304.185 308.11V334.614C306.395 332.405 310.593 329.645 315.896 329.645C327.829 329.645 336.225 337.816 336.225 354.381C336.225 370.835 325.177 379.892 310.593 379.892C299.657 379.892 293.028 377.131 290.596 376.027V308H304.185V308.11ZM368.375 357.694H366.717C359.316 357.694 354.124 359.903 354.124 365.314C354.124 368.737 356.886 370.172 359.869 370.172C364.399 370.172 367.05 367.522 368.375 366.196V357.694ZM369.811 378.786C369.369 377.571 369.147 375.141 369.038 373.705C366.939 376.245 362.409 380 355.668 380C347.494 380.001 341.196 375.142 341.196 366.529C341.196 354.05 354.012 349.523 366.717 349.523H368.375V346.872C368.375 342.896 366.717 340.467 360.753 340.467C354.565 340.467 350.367 343.669 348.6 344.884L342.744 336.712C345.617 334.062 352.024 329.755 362.298 329.755C375.556 329.755 381.853 334.835 381.853 347.645V364.43C381.853 371.056 382.517 375.693 383.179 378.786H369.811ZM406.159 379.891C397.542 379.891 392.018 377.35 389.035 375.362L393.565 365.975C395.443 367.302 400.083 369.952 405.386 369.952C410.357 369.952 413.119 368.515 413.119 365.866C413.119 362.774 407.707 361.889 400.856 358.576C394.227 355.375 390.36 351.731 390.36 344.441C390.36 335.386 397.542 329.643 408.479 329.643C416.654 329.643 421.737 332.183 423.947 333.398L419.306 342.564C417.428 341.46 413.671 339.582 409.142 339.582C404.614 339.582 402.624 341.128 402.624 343.668C402.624 346.76 407.043 347.533 412.567 349.742C420.081 352.835 425.493 356.368 425.493 364.319C425.272 374.59 417.981 379.891 406.159 379.891ZM461.731 348.97C461.621 343.669 459.522 339.362 453.778 339.362C448.473 339.362 445.38 342.786 444.497 348.97H461.731ZM456.649 369.952C463.167 369.952 466.703 367.854 469.133 366.639L473.442 375.253C470.238 377.019 465.377 379.891 455.434 379.891C439.302 379.891 430.134 369.84 430.134 354.492C430.134 339.252 440.629 329.645 453.997 329.645C469.133 329.645 476.426 340.135 474.769 358.025H444.607C445.159 365.203 448.915 369.952 456.649 369.952Z" fill="black"/>
</svg>
