<svg width="500" height="500" viewBox="0 0 500 500" fill="none" xmlns="http://www.w3.org/2000/svg">
<g clip-path="url(#clip0_33_3218)">
<path d="M459.917 136H40.0833C29.5439 136 21 144.544 21 155.083V345.917C21 356.456 29.5439 365 40.0833 365H459.917C470.456 365 479 356.456 479 345.917V155.083C479 144.544 470.456 136 459.917 136Z" fill="white"/>
<path d="M186.043 242.633C186.043 282.235 153.945 314.333 114.343 314.333C74.7411 314.333 42.6426 282.235 42.6426 242.633C42.6426 203.031 74.7411 170.933 114.343 170.933C153.945 170.896 186.043 203.031 186.043 242.633Z" fill="#008DC2"/>
<path d="M78.9098 251.525C78.9098 254.686 76.339 257.257 73.1775 257.257C70.0161 257.257 67.4453 254.686 67.4453 251.525C67.4453 248.363 70.0161 245.792 73.1775 245.792C76.3399 245.758 78.9098 248.329 78.9098 251.525ZM86.7614 266.463C86.7614 269.624 84.1906 272.195 81.0292 272.195C77.8677 272.195 75.2969 269.624 75.2969 266.463C75.2969 263.301 77.8677 260.73 81.0292 260.73C84.1906 260.696 86.7614 263.267 86.7614 266.463Z" fill="white"/>
<path d="M158.566 275.007C158.566 278.168 155.995 280.739 152.834 280.739C149.672 280.739 147.102 278.168 147.102 275.007C147.102 271.845 149.672 269.274 152.834 269.274C155.995 269.274 158.566 271.846 158.566 275.007Z" fill="white"/>
<path d="M113.267 182.524C113.267 185.686 110.696 188.256 107.535 188.256C104.373 188.256 101.802 185.695 101.802 182.524C101.802 179.354 104.373 176.792 107.534 176.792C110.695 176.792 113.267 179.364 113.267 182.524Z" fill="white"/>
<path d="M153.911 263.752C175.015 263.752 192.123 246.644 192.123 225.54C192.123 204.435 175.015 187.327 153.911 187.327C132.807 187.327 115.698 204.435 115.698 225.54C115.698 246.644 132.807 263.752 153.911 263.752Z" fill="#68B346" stroke="white" stroke-width="0.829514"/>
<path d="M101.559 334.723C118.826 334.723 132.824 320.726 132.824 303.459C132.824 286.192 118.826 272.194 101.559 272.194C84.2925 272.194 70.2949 286.192 70.2949 303.459C70.2949 320.726 84.2925 334.723 101.559 334.723Z" fill="#68B346" stroke="white" stroke-width="0.829514"/>
<path d="M75.8186 207.962C87.3298 207.962 96.6616 198.631 96.6616 187.119C96.6616 175.608 87.3298 166.276 75.8186 166.276C64.3073 166.276 54.9756 175.608 54.9756 187.119C54.9756 198.631 64.3073 207.962 75.8186 207.962Z" fill="#68B346" stroke="white" stroke-width="0.829514"/>
<path d="M210.383 222.714H215.535V232.714C218.009 226.634 223.169 221.89 233.676 221.89C245.634 221.89 253.675 229.932 253.675 242.614V274.674H248.523V243.645C248.523 233.233 242.134 226.737 232.546 226.737C222.134 226.737 215.539 234.779 215.539 246.736V274.674H210.387L210.383 222.714ZM262.854 248.797C262.854 232.615 273.923 221.481 288.212 221.481C302.334 221.481 312.334 233.13 312.334 247.358L312.231 249.935H267.938C268.243 262.408 276.602 271.308 288.453 271.308C298.147 271.308 304.842 267.186 307.933 263.266V269.346C303.086 273.674 297.246 276.151 288.453 276.151C273.507 276.151 262.889 265.224 262.889 249.145V248.839L262.854 248.797ZM306.872 245.294C306.769 234.676 298.521 226.325 288.216 226.325C277.392 226.325 268.522 234.676 268.114 245.294H306.872ZM347.691 221.378C362.946 221.378 375.007 233.027 375.007 248.694C375.007 264.362 362.946 276.01 347.691 276.01C332.436 276.01 320.375 264.362 320.375 248.694C320.375 233.027 332.436 221.378 347.691 221.378ZM347.691 271.167C360.37 271.167 369.855 261.472 369.855 248.694C369.855 235.916 360.37 226.222 347.691 226.222C335.012 226.222 325.528 235.916 325.528 248.694C325.528 261.472 335.012 271.167 347.691 271.167ZM402.22 222.714H407.991L385.93 269.72H417.99V252.713H423.349V294.563H417.99V274.667H377.789L402.22 222.714ZM440.978 222.714H446.131V281.884C446.131 293.532 439.429 295.903 432.936 295.903C431.7 295.903 430.36 295.8 429.501 295.597V290.75C430.738 290.956 432.181 291.055 433.417 291.055C438.673 291.055 440.944 288.479 440.944 281.88L440.978 222.714ZM439.845 208.799C439.845 206.635 441.6 205.089 443.554 205.089C445.509 205.089 447.264 206.635 447.264 208.799C447.264 210.86 445.509 212.405 443.554 212.405C441.6 212.405 439.845 210.86 439.845 208.799Z" fill="#101010"/>
</g>
<defs>
<clipPath id="clip0_33_3218">
<rect width="458" height="229" fill="white" transform="translate(21 136)"/>
</clipPath>
</defs>
</svg>
