<svg width="500" height="500" viewBox="0 0 500 500" fill="none" xmlns="http://www.w3.org/2000/svg">
<path d="M316.78 378.141H304.433C300.938 378.141 298.492 378.838 297.094 380.234C295.58 381.629 294.881 384.071 294.881 387.443V430.001H287.426V386.862C287.426 383.606 288.008 380.001 289.756 377.327C292.901 372.327 298.958 371.396 303.384 371.396H316.78V378.141Z" fill="#1A1A1A"/>
<path d="M269.254 423.489C265.76 423.489 263.313 422.791 261.915 421.396C260.401 420.001 259.702 417.675 259.702 414.303V378.256H275.195V371.628H259.702V354.07H252.247V414.768C252.247 418.024 252.83 421.628 254.577 424.303C257.722 429.303 263.779 430.233 268.206 430.233H281.602V423.605H269.254V423.489Z" fill="#1A1A1A"/>
<path d="M75.8867 353.954V371.512H60.394C50.9585 371.512 45.2507 374.303 41.7561 377.675C36.2813 382.908 36.2812 390.466 36.2812 391.28C36.2812 392.21 36.2812 409.187 36.2812 410.117C36.2812 410.931 36.2813 418.489 41.7561 423.722C45.2507 427.094 50.9585 429.884 60.394 429.884H67.2667C71.6931 429.884 77.7504 428.954 80.8956 423.954C82.6429 421.28 83.2253 417.675 83.2253 414.419V353.722H75.8867V353.954ZM73.6734 421.28C72.1591 422.675 69.8294 423.373 66.3348 423.373H59.695C53.6377 423.373 49.7937 421.629 47.464 419.303C44.6683 416.629 43.7364 413.14 43.7364 410.35V391.047C43.7364 388.257 44.6683 384.768 47.464 382.094C49.7937 379.768 53.6377 378.024 59.695 378.024H75.8867V414.071C75.8867 417.559 75.0713 419.884 73.6734 421.28Z" fill="#1A1A1A"/>
<path d="M383.644 382.21C385.974 379.885 389.818 378.141 395.875 378.141H413.698V371.513H396.691C387.255 371.513 381.548 374.303 378.053 377.675C372.578 382.908 372.578 390.466 372.578 391.28C372.578 391.745 372.578 409.652 372.578 410.117C372.578 410.931 372.578 418.489 378.053 423.722C381.548 427.094 387.255 429.885 396.691 429.885H413.698V423.257H395.875C389.818 423.257 385.974 421.513 383.644 419.187C380.849 416.513 379.917 413.024 379.917 410.234V390.931C380.033 388.373 380.965 384.885 383.644 382.21Z" fill="#1A1A1A"/>
<path d="M244.675 391.396C244.675 390.582 244.675 383.024 239.2 377.792C235.706 374.42 229.998 371.629 220.563 371.629H204.138V378.257H221.378C227.435 378.257 231.279 380.001 233.609 382.327C236.405 385.001 237.337 388.489 237.337 391.28V396.861H213.806C209.38 396.861 203.323 397.792 200.177 402.792C198.43 405.466 197.848 409.071 197.848 412.327V414.652C197.848 417.908 198.43 421.513 200.177 424.187C203.323 429.187 209.38 430.117 213.806 430.117H228.717C233.143 430.117 239.2 429.187 242.345 424.187C244.093 421.513 244.675 417.908 244.675 414.652C244.675 414.652 244.675 395.234 244.675 391.396ZM235.007 421.28C233.493 422.675 231.163 423.373 227.668 423.373H214.738C211.244 423.373 208.797 422.675 207.4 421.28C205.885 419.885 205.186 417.559 205.186 414.187V412.559C205.186 409.187 205.885 406.861 207.4 405.466C208.914 404.071 211.244 403.373 214.738 403.373H237.337V414.187C237.22 417.559 236.521 419.885 235.007 421.28Z" fill="#1A1A1A"/>
<path d="M366.754 391.396C366.754 390.582 366.754 383.024 361.279 377.792C357.784 374.42 352.076 371.629 342.641 371.629H326.216V378.257H343.34C349.397 378.257 353.241 380.001 355.571 382.327C358.367 385.001 359.298 388.489 359.298 391.28V396.861H335.768C331.342 396.861 325.284 397.792 322.139 402.792C320.392 405.466 319.81 409.071 319.81 412.327V414.652C319.81 417.908 320.392 421.513 322.139 424.187C325.284 429.187 331.342 430.117 335.768 430.117H350.678C355.105 430.117 361.162 429.187 364.307 424.187C366.055 421.513 366.637 417.908 366.637 414.652C366.754 414.652 366.754 395.234 366.754 391.396ZM357.085 421.28C355.571 422.675 353.241 423.373 349.747 423.373H336.7C333.206 423.373 330.759 422.675 329.361 421.28C327.847 419.885 327.148 417.559 327.148 414.187V412.559C327.148 409.187 327.847 406.861 329.361 405.466C330.876 404.071 333.206 403.373 336.7 403.373H359.298V414.187C359.298 417.559 358.6 419.885 357.085 421.28Z" fill="#1A1A1A"/>
<path d="M141.934 371.513H134.246L115.492 420.117L96.8541 371.513H89.166L111.648 430.117L104.892 447.675H112.58L141.934 371.513Z" fill="#1A1A1A"/>
<path d="M191.791 391.396C191.791 390.582 191.791 383.024 186.432 377.792C183.054 374.42 177.579 371.745 168.726 371.629H167.911C159.058 371.745 153.583 374.536 150.205 377.792C144.847 383.024 144.847 390.582 144.847 391.396C144.847 392.327 144.847 427.094 144.847 430.117H152.185V391.164C152.185 388.373 153.117 384.885 155.796 382.21C158.126 380.001 162.436 378.257 168.26 378.257C174.085 378.373 178.511 380.001 180.725 382.21C183.404 384.885 184.336 388.373 184.336 391.164V430.117H191.674C191.791 427.094 191.791 392.327 191.791 391.396Z" fill="#1A1A1A"/>
<path d="M459.36 377.792C455.982 374.42 450.507 371.745 441.654 371.629H440.839C431.986 371.745 426.511 374.536 423.133 377.792C417.774 383.024 417.774 390.582 417.774 391.396V410.234C417.774 411.047 417.774 418.606 423.133 423.838C426.511 427.21 431.986 429.885 440.839 430.001H458.195V423.373H441.188C435.364 423.257 430.937 421.629 428.724 419.42C426.045 416.745 425.113 413.257 425.113 410.466V403.489H464.718V391.28C464.718 390.582 464.718 383.024 459.36 377.792ZM425.113 396.861V391.047C425.113 388.257 426.045 384.768 428.724 382.094C431.054 379.885 435.364 378.141 441.188 378.141C447.013 378.257 451.439 379.885 453.652 382.094C456.331 384.768 457.263 388.257 457.263 391.047V396.861H425.113Z" fill="#1A1A1A"/>
<path d="M210.894 73.0238C207.749 89.8843 203.672 114.768 201.576 140.001C197.848 184.652 200.178 214.419 200.178 214.419L137.391 274.07C137.391 274.07 132.499 240.582 130.053 202.908C128.538 179.652 128.073 159.07 127.956 146.628C127.956 145.931 128.306 145.233 128.306 144.535C128.306 143.721 129.354 135.349 137.508 127.675C146.477 119.187 211.826 68.0238 210.894 73.0238Z" fill="#1496FF"/>
<path d="M210.894 73.0233C207.749 89.8837 203.672 114.767 201.576 140C201.576 140 132.033 131.744 127.956 148.488C127.956 147.674 129.121 137.442 137.275 129.651C146.244 121.047 211.826 68.0233 210.894 73.0233Z" fill="#1284EA"/>
<path d="M127.956 144.535C127.956 145.698 127.956 146.977 127.956 148.373C128.655 145.349 129.82 143.14 132.382 140C137.508 133.489 145.895 131.745 149.273 131.28C166.28 129.07 191.441 126.28 216.719 125.582C261.566 124.186 291.153 127.907 291.153 127.907L353.94 68.2563C353.94 68.2563 320.974 61.9772 283.349 57.5586C258.77 54.6516 237.104 53.14 224.989 52.4423C224.174 52.4423 215.437 51.2795 207.283 59.0702C198.314 67.5586 153.35 110.117 135.295 127.326C127.373 135 127.956 143.721 127.956 144.535Z" fill="#B4DC00"/>
<path d="M351.727 220.698C334.72 223.024 309.675 225.815 284.281 226.629C239.434 228.14 209.73 224.419 209.73 224.419L146.827 284.071C146.827 284.071 180.142 290.582 217.651 294.885C240.599 297.559 261.1 298.954 273.448 299.652C274.263 299.652 275.778 298.954 276.593 298.954C277.408 298.954 286.145 297.443 294.299 289.652C303.385 281.164 356.736 220.117 351.727 220.698Z" fill="#6F2DA8"/>
<path d="M351.726 220.698C334.719 223.024 309.675 225.815 284.281 226.629C284.281 226.629 289.173 296.396 272.166 299.536C272.981 299.536 284.514 298.954 292.668 291.28C301.637 282.791 356.735 220.117 351.726 220.698Z" fill="#591F91"/>
<path d="M276.01 299.884C274.845 299.767 273.564 299.767 272.166 299.651C275.311 299.07 277.408 298.023 280.786 295.698C287.542 290.814 289.755 282.674 290.338 279.302C293.367 262.442 297.327 237.558 299.424 212.326C303.035 167.674 300.705 138.023 300.705 138.023L363.491 78.3721C363.491 78.3721 368.151 111.512 370.714 149.186C372.344 173.837 372.81 195.465 372.927 207.558C372.927 208.372 373.626 217.093 365.472 224.884C356.502 233.372 311.655 276.163 293.6 293.372C285.562 300.93 276.825 299.884 276.01 299.884Z" fill="#73BE28"/>
</svg>
