<svg width="500" height="500" viewBox="0 0 500 500" fill="none" xmlns="http://www.w3.org/2000/svg">
<g clip-path="url(#clip0_40_4166)">
<path d="M352.078 230.958H341.613C338.656 230.958 336.608 231.522 335.357 232.761C334.106 233.944 333.48 236.029 333.48 238.846V274.677H327.224V238.395C327.281 235.634 327.736 232.648 329.214 230.395C331.887 226.17 337.006 225.381 340.817 225.381H352.135V230.958H352.078Z" fill="#1A1A1A"/>
<path d="M311.697 269.042C308.74 269.042 306.692 268.479 305.441 267.24C304.19 266.056 303.564 264.085 303.564 261.268V230.958H316.702V225.38H303.564V210.563H297.308V261.606C297.364 264.366 297.819 267.352 299.298 269.606C301.971 273.831 307.09 274.62 310.901 274.62H322.219V269.042H311.697Z" fill="#1A1A1A"/>
<path d="M147.726 210.563V225.324H134.588C126.626 225.324 121.791 227.69 118.777 230.563C114.17 235.014 114.17 241.38 114.17 242.056C114.17 242.845 114.17 257.155 114.17 257.944C114.17 258.62 114.17 264.986 118.777 269.437C121.734 272.31 126.569 274.676 134.588 274.676H140.446C144.257 274.676 149.376 273.831 152.049 269.662C153.471 267.409 153.982 264.423 154.039 261.662V210.563H147.726ZM145.849 267.296C144.598 268.479 142.551 269.099 139.593 269.099H133.906C128.73 269.099 125.488 267.634 123.554 265.718C121.222 263.465 120.426 260.479 120.426 258.169V241.887C120.426 239.578 121.222 236.592 123.554 234.338C125.545 232.423 128.73 230.958 133.906 230.958H147.669V261.324C147.726 264.085 147.101 266.056 145.849 267.296Z" fill="#1A1A1A"/>
<path d="M408.725 234.339C410.716 232.423 413.901 230.958 419.077 230.958H434.149V225.381H419.702C411.74 225.381 406.905 227.747 403.891 230.62C399.284 235.071 399.284 241.437 399.284 242.113C399.284 242.564 399.284 257.55 399.284 258.001C399.284 258.677 399.284 265.043 403.891 269.494C406.849 272.367 411.683 274.733 419.702 274.733H434.149V269.156H419.077C413.901 269.156 410.659 267.691 408.725 265.775C406.394 263.522 405.597 260.536 405.597 258.226V241.888C405.597 239.578 406.394 236.536 408.725 234.339Z" fill="#1A1A1A"/>
<path d="M290.823 242.057C290.823 241.381 290.823 235.014 286.217 230.564C283.259 227.69 278.425 225.324 270.405 225.324H256.471V230.902H271.031C276.207 230.902 279.448 232.366 281.382 234.282C283.714 236.535 284.51 239.521 284.51 241.831V246.62H264.547C260.737 246.62 255.618 247.465 252.945 251.634C251.523 253.888 251.011 256.874 250.954 259.634V261.606C251.011 264.366 251.466 267.352 252.945 269.606C255.618 273.831 260.737 274.62 264.547 274.62H277.23C281.041 274.62 286.16 273.775 288.833 269.606C290.255 267.352 290.767 264.366 290.823 261.606C290.823 261.606 290.823 245.268 290.823 242.057ZM282.69 267.296C281.439 268.479 279.392 269.099 276.434 269.099H265.4C262.443 269.099 260.395 268.535 259.144 267.296C257.893 266.057 257.324 264.085 257.324 261.324V259.972C257.324 257.155 257.95 255.183 259.201 254C260.452 252.817 262.5 252.197 265.457 252.197H284.567V261.324C284.567 264.085 283.942 266.057 282.69 267.296Z" fill="#1A1A1A"/>
<path d="M394.336 242.057C394.336 241.381 394.336 235.014 389.729 230.564C386.772 227.69 381.937 225.324 373.918 225.324H359.984V230.902H374.544C379.719 230.902 382.961 232.366 384.895 234.282C387.227 236.535 388.023 239.521 388.023 241.831V246.62H368.06C364.249 246.62 359.131 247.465 356.457 251.634C355.036 253.888 354.524 256.874 354.467 259.634V261.606C354.524 264.366 354.979 267.352 356.457 269.606C359.131 273.831 364.249 274.62 368.06 274.62H380.743C384.554 274.62 389.672 273.775 392.346 269.606C393.767 267.352 394.279 264.366 394.336 261.606C394.336 261.606 394.336 245.268 394.336 242.057ZM386.203 267.296C384.952 268.479 382.904 269.099 379.947 269.099H368.913C365.956 269.099 363.908 268.535 362.657 267.296C361.406 266.057 360.837 264.085 360.837 261.324V259.972C360.837 257.155 361.462 255.183 362.714 254C363.965 252.817 366.012 252.197 368.97 252.197H388.08V261.324C388.08 264.085 387.454 266.057 386.203 267.296Z" fill="#1A1A1A"/>
<path d="M203.748 225.324H197.207L181.339 266.226L165.471 225.324H158.987L178.097 274.62L172.353 289.437H178.894L203.748 225.324Z" fill="#1A1A1A"/>
<path d="M246.063 242.057C246.063 241.381 246.063 235.014 241.513 230.564C238.613 227.747 234.006 225.437 226.498 225.324H225.816C218.308 225.437 213.702 227.747 210.801 230.564C206.251 235.014 206.251 241.381 206.251 242.057C206.251 242.845 206.251 272.141 206.251 274.676H212.507V241.888C212.507 239.578 213.247 236.592 215.578 234.338C217.512 232.479 221.209 231.014 226.157 230.958C231.105 231.014 234.802 232.479 236.736 234.338C239.011 236.592 239.807 239.578 239.807 241.888V274.676H246.063C246.063 272.141 246.063 242.845 246.063 242.057Z" fill="#1A1A1A"/>
<path d="M472.881 230.564C469.98 227.747 465.373 225.437 457.866 225.324H457.183C449.676 225.437 445.069 227.747 442.168 230.564C437.618 235.014 437.618 241.381 437.618 242.057V257.944C437.618 258.62 437.618 264.986 442.168 269.437C445.069 272.254 449.676 274.564 457.183 274.676H471.971V269.043H457.524C452.576 268.986 448.879 267.521 446.946 265.662C444.671 263.409 443.874 260.423 443.874 258.113V252.31H477.431V242.057C477.488 241.381 477.488 235.014 472.881 230.564ZM443.931 246.733V241.888C443.931 239.578 444.671 236.592 447.003 234.338C448.936 232.479 452.633 231.014 457.581 230.958C462.529 231.014 466.226 232.479 468.16 234.338C470.435 236.592 471.231 239.578 471.231 241.888V246.733H443.931Z" fill="#1A1A1A"/>
<path d="M50.129 217.155C49.1052 222.507 47.854 230.451 47.1715 238.507C45.9771 252.705 46.7165 262.226 46.7165 262.226L26.5259 281.212C26.5259 281.212 24.9902 270.564 24.194 258.564C23.739 251.127 23.5684 244.592 23.5684 240.648C23.5684 240.423 23.6821 240.197 23.6821 239.972C23.6821 239.69 24.0234 237.043 26.6396 234.564C29.4834 231.859 50.4702 215.578 50.129 217.155Z" fill="#1496FF"/>
<path d="M50.129 217.154C49.1052 222.507 47.854 230.45 47.1715 238.507C47.1715 238.507 24.8196 235.859 23.5684 241.211C23.5684 240.929 23.9665 237.662 26.5827 235.183C29.4265 232.478 50.4702 215.577 50.129 217.154Z" fill="#1284EA"/>
<path d="M23.5685 239.915C23.5685 240.31 23.5685 240.704 23.5685 241.155C23.796 240.197 24.1941 239.521 24.9903 238.451C26.6397 236.366 29.3128 235.803 30.3935 235.69C35.8535 234.958 43.9297 234.113 52.0628 233.887C66.4522 233.437 75.9503 234.62 75.9503 234.62L96.141 215.634C96.141 215.634 85.5622 213.662 73.5047 212.254C65.5991 211.296 58.6603 210.789 54.736 210.563C54.4516 210.563 51.6647 210.225 49.0485 212.704C46.2047 215.408 31.7585 228.986 25.9572 234.451C23.341 236.93 23.5685 239.69 23.5685 239.915Z" fill="#B4DC00"/>
<path d="M95.402 264.197C89.942 264.93 81.8658 265.831 73.7327 266.113C59.3433 266.564 49.7883 265.38 49.7883 265.38L29.5977 284.423C29.5977 284.423 40.2902 286.507 52.3477 287.859C59.7414 288.704 66.282 289.155 70.2633 289.38C70.5477 289.38 71.0027 289.155 71.287 289.155C71.5714 289.155 74.3583 288.648 76.9745 286.169C79.8183 283.465 96.9945 264.028 95.402 264.197Z" fill="#6F2DA8"/>
<path d="M95.4011 264.197C89.9411 264.93 81.8649 265.831 73.7318 266.113C73.7318 266.113 75.2674 288.366 69.8643 289.324C70.1486 289.324 73.8455 289.155 76.4618 286.676C79.3055 283.972 96.9936 264.028 95.4011 264.197Z" fill="#591F91"/>
<path d="M71.0589 289.437C70.6607 289.437 70.2626 289.381 69.8076 289.381C70.8314 289.212 71.5139 288.874 72.5945 288.085C74.7557 286.564 75.4382 283.916 75.6657 282.845C76.6326 277.493 77.9407 269.55 78.5664 261.493C79.7039 247.296 79.0214 237.831 79.0214 237.831L99.212 218.789C99.212 218.789 100.691 229.381 101.544 241.381C102.056 249.212 102.226 256.141 102.283 259.972C102.283 260.254 102.511 263.014 99.8945 265.493C97.0507 268.198 82.6045 281.831 76.8601 287.296C74.1301 289.775 71.3432 289.437 71.0589 289.437Z" fill="#73BE28"/>
</g>
<defs>
<clipPath id="clip0_40_4166">
<rect width="455" height="80" fill="white" transform="translate(23 210)"/>
</clipPath>
</defs>
</svg>
