<svg width="500" height="500" viewBox="0 0 500 500" fill="none" xmlns="http://www.w3.org/2000/svg">
<path d="M34.9482 225.681C59.771 223.454 94.2266 225.307 94.2266 225.307V234.384H70.8857V273.47H59.4006V234.384H35.3187L34.9482 225.681Z" fill="#171F69"/>
<path d="M228.4 259.391C228.4 263.485 225.084 266.801 220.99 266.801C216.896 266.801 213.58 263.485 213.58 259.391C213.58 255.301 216.896 251.981 220.99 251.981C225.084 251.981 228.4 255.305 228.4 259.391Z" fill="#3CC2D2"/>
<path d="M158.374 224.935V244.571H126.83V224.935L114.975 225.68V274.047L126.83 274.581V253.467H158.374V274.581L170.237 274.047V225.68L158.374 224.935ZM188.332 273.469L215.748 225.68H227.233L255.02 273.469L242.053 274.581L221.676 237.161H220.564L199.817 274.21L188.332 273.469ZM272.433 273.469V226.047H283.177V264.948H320.967V273.469C320.967 273.469 296.144 278.656 272.433 273.469ZM339.491 273.843V225.68C339.491 225.68 373.576 221.975 390.986 226.05V234.942L351.621 235.313V244.945H374.317V254.207H351.625V265.322H391.73V274.214C391.73 274.21 362.091 278.286 339.491 273.843ZM464.346 225.306V234.942H421.37V244.575H456.566C461.382 244.575 465.087 248.65 465.087 252.726V265.318C465.087 273.469 456.566 275.696 448.789 275.696C436.934 275.696 417.298 275.322 410.629 274.214V265.322H454.714V254.574H421.744C416.557 254.574 410.999 251.61 410.999 247.905V233.456C410.999 228.644 417.668 225.306 422.855 225.306H464.346Z" fill="#171F69"/>
</svg>
